<?xml version="1.0" standalone="no"?>
<!DOCTYPE svg PUBLIC "-//W3C//DTD SVG 20010904//EN"
 "http://www.w3.org/TR/2001/REC-SVG-20010904/DTD/svg10.dtd">
<svg version="1.0" xmlns="http://www.w3.org/2000/svg"
 width="100.000000pt" height="96.000000pt" viewBox="0 0 100.000000 96.000000"
 preserveAspectRatio="xMidYMid meet">
<metadata>
Created by potrace 1.16, written by Peter Selinger 2001-2019
</metadata>
<g transform="translate(0.000000,96.000000) scale(0.100000,-0.100000)"
fill="#000000" stroke="none">
<path d="M595 883 c-138 -12 -297 -35 -340 -49 -180 -61 -235 -181 -189 -416
25 -129 63 -182 146 -202 19 -4 28 -14 33 -37 7 -31 92 -129 112 -129 6 0 13
27 15 59 6 81 16 91 97 91 202 1 376 60 443 150 65 89 73 364 13 460 -39 62
-86 80 -197 78 -51 -1 -111 -3 -133 -5z m220 -14 c96 -27 141 -125 132 -288
-7 -120 -19 -162 -60 -202 -65 -65 -178 -96 -391 -106 l-138 -6 -14 -33 c-8
-18 -14 -59 -14 -90 0 -51 -1 -55 -17 -43 -21 18 -63 108 -63 136 0 18 -7 23
-45 29 -72 10 -98 42 -119 145 -42 196 -8 311 109 375 73 40 165 59 355 74 80
6 147 13 149 16 8 8 76 4 116 -7z"/>
<path d="M514 739 c-26 -29 -26 -99 0 -128 51 -56 120 2 97 80 -11 36 -43 69
-67 69 -6 0 -19 -9 -30 -21z"/>
<path d="M381 717 c-45 -49 -16 -147 44 -147 59 0 75 91 26 141 -36 35 -41 36
-70 6z"/>
<path d="M461 550 c-28 -13 -44 -30 -60 -62 -26 -55 -27 -88 -1 -116 26 -28
27 -27 73 4 45 30 61 32 117 14 39 -13 43 -13 56 5 27 36 11 98 -35 139 -32
29 -103 36 -150 16z m145 -44 c24 -24 34 -43 34 -65 0 -40 -16 -46 -64 -26
-41 17 -67 13 -105 -16 -29 -23 -60 -24 -67 -4 -11 28 7 88 36 117 24 23 37
28 80 28 46 0 56 -4 86 -34z"/>
</g>
</svg>
